<?xml version="1.0" encoding="utf-8"?>
<!-- Generator: Adobe Illustrator 21.0.0, SVG Export Plug-In . SVG Version: 6.00 Build 0)  -->
<svg version="1.1" id="Layer_1" xmlns="http://www.w3.org/2000/svg" xmlns:xlink="http://www.w3.org/1999/xlink" x="0px" y="0px"
	 viewBox="0 0 512 512" style="enable-background:new 0 0 512 512;" xml:space="preserve">
<g>
	<path d="M228.6,256c0,15.1,12.3,27.4,27.4,27.4s27.4-12.3,27.4-27.4s-12.3-27.4-27.4-27.4S228.6,240.9,228.6,256z M342.9,256
		c0,15.1,12.3,27.4,27.4,27.4s27.4-12.3,27.4-27.4s-12.3-27.4-27.4-27.4S342.9,240.9,342.9,256z M114.3,256
		c0,15.1,12.3,27.4,27.4,27.4s27.4-12.3,27.4-27.4s-12.3-27.4-27.4-27.4S114.3,240.9,114.3,256z M492.1,156.8
		c-12.9-30.7-31.4-58.2-55-81.9c-23.4-23.5-51.3-42.2-81.9-55C323.8,6.7,290.4,0,256,0h-1.1c-34.6,0.2-68.2,7-99.7,20.5
		C124.8,33.5,97.2,52.2,74,75.7c-23.4,23.6-41.7,51-54.4,81.6C6.5,188.9-0.2,222.6,0,257.2c0.2,39.7,9.6,78.8,27.4,114.2v86.9
		c0,14.5,11.8,26.3,26.3,26.3h86.9c35.4,17.8,74.5,27.2,114.2,27.4h1.2c34.2,0,67.4-6.6,98.7-19.6c30.5-12.7,58.2-31.1,81.6-54.4
		c23.6-23.4,42.2-50.7,55.1-81.1c13.5-31.5,20.3-65.1,20.5-99.7C512.2,222.3,505.4,188.6,492.1,156.8z M405.8,407.1
		c-40.1,39.7-93.2,61.5-149.8,61.5h-1c-34.5-0.2-68.7-8.7-98.9-24.9l-4.8-2.6H70.9v-80.5l-2.6-4.8c-16.1-30.2-24.7-64.5-24.9-98.9
		c-0.2-57,21.5-110.5,61.5-150.7c39.9-40.3,93.2-62.6,150.2-62.8h1c28.6,0,56.3,5.5,82.4,16.5c25.5,10.7,48.3,26.1,68,45.7
		c19.6,19.6,35,42.5,45.7,68c11.1,26.4,16.6,54.4,16.5,83.3C468.3,313.9,446,367.2,405.8,407.1z"/>
</g>
</svg>
